<?xml version="1.0" encoding="utf-8"?>
<!-- Generator: Adobe Illustrator 25.0.1, SVG Export Plug-In . SVG Version: 6.00 Build 0)  -->
<svg version="1.1" id="Layer_1" xmlns="http://www.w3.org/2000/svg" xmlns:xlink="http://www.w3.org/1999/xlink" x="0px" y="0px"
	 viewBox="0 0 32 32" enable-background="new 0 0 32 32" xml:space="preserve">
<g>
   <style>
    @media (prefers-color-scheme: dark) {
      path {
        fill: #eaeaea;
      }
    }
  </style>
	<path d="M0,21.4V10.7h2.3v1.5h0.1c0.2-0.6,0.6-0.9,1.1-1.2s1.3-0.5,2-0.5c0.8,0,1.4,0.2,2,0.5c0.5,0.3,0.9,0.6,1.2,1.2h0.1
		c0.3-0.6,0.6-0.9,1.2-1.2c0.6-0.3,1.4-0.5,2.2-0.5c1,0,1.9,0.3,2.6,0.9s1,1.5,1,2.7v7.1h-2.4v-6.9c0-0.7-0.2-1.2-0.6-1.5
		c-0.4-0.3-0.9-0.5-1.5-0.5c-0.7,0-1.3,0.2-1.6,0.6c-0.4,0.4-0.6,0.9-0.6,1.5v6.7H6.7v-7c0-0.6-0.2-1-0.6-1.4s-0.9-0.5-1.5-0.5
		c-0.4,0-0.8,0.1-1.1,0.3c-0.3,0.2-0.6,0.5-0.8,0.8c-0.2,0.4-0.3,0.8-0.3,1.2v6.5H0z"/>
	<path d="M32,14.5v1.9H18v-1.9L32,14.5z"/>
</g>
</svg>
